PathFileType	4	(X/Y/Z)	Walk8.trc
DataRate	CameraRate	NumFrames	NumMarkers	Units	OrigDataRate	OrigDataStartFrame	OrigNumFrames
200.000000	200.000000	6	55	mm	200.000000	850	935
Frame#	Times		LToe		LWRR		C7		RTH2		LACR1		RBHD		LElbow		LUA1		RMT1		LCAR		RCAR		RToe		LWRU		RTB2		LMMAL		RTB3		LTH3		RFA1		RTB4		RMT5		LMT5		RTB1		RMFC		RElbow		LTH4		RElbowM		RMMAL		RLFC		RCAL		LTB2		LPSI		LLFC		RPSI		RTH3		LTH2		T10		LASI		LCAL		LBHD		RBack		RASI		RFHD		LFHD		RACR1		LMT1		RLMAL		LLMAL		RUA1		RWRR		LTB1		LMFC		LTH1		LTB3		LTB4		RTH4
			X1	Y1	Z1	X2	Y2	Z2	X3	Y3	Z3	X4	Y4	Z4	X5	Y5	Z5	X6	Y6	Z6	X7	Y7	Z7	X8	Y8	Z8	X9	Y9	Z9	X10	Y10	Z10	X11	Y11	Z11	X12	Y12	Z12	X13	Y13	Z13	X14	Y14	Z14	X15	Y15	Z15	X16	Y16	Z16	X17	Y17	Z17	X18	Y18	Z18	X19	Y19	Z19	X20	Y20	Z20	X21	Y21	Z21	X22	Y22	Z22	X23	Y23	Z23	X24	Y24	Z24	X25	Y25	Z25	X26	Y26	Z26	X27	Y27	Z27	X28	Y28	Z28	X29	Y29	Z29	X30	Y30	Z30	X31	Y31	Z31	X32	Y32	Z32	X33	Y33	Z33	X34	Y34	Z34	X35	Y35	Z35	X36	Y36	Z36	X37	Y37	Z37	X38	Y38	Z38	X39	Y39	Z39	X40	Y40	Z40	X41	Y41	Z41	X42	Y42	Z42	X43	Y43	Z43	X44	Y44	Z44	X45	Y45	Z45	X46	Y46	Z46	X47	Y47	Z47	X48	Y48	Z48	X49	Y49	Z49	X50	Y50	Z50	X51	Y51	Z51	X52	Y52	Z52	X53	Y53	Z53	X54	Y54	Z54	X55	Y55	Z55

850	4.25	960.67	61.927	-104.68	523.69	794.49	-324.99	580.85	1469.1	-63.21	681.19	639.29	75.017	674.91	1396.9	-229.07	614.94	1597.7	-127.38	541.13	1075.3	-322.89	611.9	1198.4	-293.73	401.86	30.278	30.801	517.45	937.38	-328.84	727.41	797.84	232.13	448.92	29.147	67.725	587.49	757.78	-311.35	494.42	292.4	89.932	790.49	72.978	-63.23	434.44	225.11	16.36	732.4	583.72	-177.6	627.19	926	240.58	500.18	285.1	14.152	369.07	54.856	101.53	885.05	23.176	-162.6	571.5	351.68	16.681	584.1	464.48	-28.102	582.27	1082.1	239.1	706.63	673.35	-198.82	543.27	1082.3	162	333.96	140.96	-7.7926	615.42	492.42	97.09	245.19	158.4	7.247	793.85	310.19	-160.61	485.89	1027.9	-82.609	736.46	521.5	-171.56	479.13	1029.4	-13.764	619.44	539.27	100.7	763.28	695.12	-157.89	500.11	1213.9	-49.895	680.44	1015	-194.52	705.75	32.961	-93.97	614.91	1594.3	9.4957	558.89	1362.6	95.67	649.53	978.63	115.62	791.99	1631.8	-96.209	791.94	1631.6	-21.147	689.28	1415.4	94.139	920.86	37.04	-86.354	308.21	159.82	68.79	767.66	59.634	-144.39	655.59	1239.8	186.72	726.36	843.88	182.42	800.26	402.59	-88.546	729.53	497.67	-43.25	680.15	760.87	-215.69	799.11	217.02	-90.474	798.81	309.66	-88.487	620.3	632.94	117.71
851	4.255	961.16	61.279	-104.44	531.36	794.63	-325.79	585.34	1469.7	-63.975	689.27	640.25	74.866	679.83	1397.7	-229.65	619.58	1598.3	-128.02	547.55	1075.5	-323.76	617.8	1198.8	-294.38	405.04	31.655	30.481	524.46	937.45	-329.7	730.72	798.15	231.33	452.03	30.885	67.036	595.25	758.18	-311.97	502.4	294.48	90.295	790.52	72.938	-63.033	441.71	227.76	16.777	735.53	583.73	-178.19	630.75	926.5	239.63	508.17	286.97	14.571	373.83	57.813	101.35	885.18	23.193	-162.6	580.31	352.8	17.079	594.4	464.79	-28.122	586.13	1082.7	238.15	710.37	673.53	-199.42	547.23	1083.1	161.01	340.23	144.7	-7.4178	624.98	492.85	97.466	251.7	163.75	7.6607	795.94	309.98	-160.64	490.54	1028.3	-83.372	739.59	521.55	-171.86	483.75	1029.6	-14.585	628.58	539.64	100.93	767.34	694.9	-158.77	504.67	1214.4	-50.783	685.05	1015.7	-195.33	705.76	32.964	-93.985	619.48	1595	8.8601	563.2	1363.1	94.859	655.24	979.93	114.22	796.63	1632.2	-96.76	796.56	1632.1	-21.704	693.6	1416	93.449	920.99	36.815	-86.273	314.74	164.03	69.206	767.79	59.633	-144.3	659.73	1240.3	185.9	729.91	844.22	181.69	802.76	402.36	-88.612	732.64	497.98	-43.685	684.52	761.22	-216.35	800.31	216.79	-90.392	800.68	309.45	-88.493	628.46	633.35	117.65
852	4.26	961.6	60.685	-104.23	539.11	794.74	-326.58	589.78	1470.2	-64.716	697.29	641.27	74.768	684.69	1398.4	-230.22	624.18	1599	-128.63	553.94	1075.6	-324.65	623.65	1199.2	-295.04	408.83	33.243	30.203	531.51	937.49	-330.56	734.03	798.45	230.53	455.77	32.813	66.438	603.1	758.59	-312.58	510.51	296.54	90.62	790.54	72.903	-62.848	449.15	230.35	17.162	738.43	583.66	-178.82	634.28	926.98	238.69	516.26	288.84	14.948	379.05	60.791	101.24	885.3	23.227	-162.59	589.16	353.99	17.421	604.64	465.27	-28.141	589.95	1083.3	237.21	713.93	673.65	-200.03	551.14	1083.8	160.05	346.75	148.3	-7.0786	634.44	493.37	97.83	258.46	168.76	8.076	797.95	309.76	-160.7	495.18	1028.8	-84.135	742.59	521.58	-172.17	488.35	1029.9	-15.405	637.62	540.11	101.16	771.28	694.57	-159.7	509.2	1215	-51.652	689.63	1016.4	-196.14	705.76	32.957	-93.993	624	1595.6	8.2495	567.44	1363.7	94.053	661.11	981.17	112.85	801.23	1632.7	-97.275	801.13	1632.5	-22.226	697.87	1416.6	92.799	921.11	36.629	-86.194	321.53	168.04	69.612	767.9	59.632	-144.22	663.81	1240.9	185.13	733.43	844.55	180.96	805.17	402.11	-88.711	735.57	498.22	-44.148	688.76	761.5	-217.02	801.47	216.57	-90.331	802.48	309.23	-88.522	636.55	633.82	117.6
853	4.265	962.01	60.14	-104.04	546.95	794.83	-327.35	594.17	1470.8	-65.436	705.25	642.35	74.721	689.48	1399.2	-230.77	628.72	1599.6	-129.21	560.32	1075.8	-325.55	629.46	1199.6	-295.7	413.26	35.027	29.979	538.59	937.51	-331.43	737.34	798.74	229.72	460.19	34.911	65.948	611.06	759.01	-313.17	518.73	298.55	90.902	790.55	72.873	-62.678	456.75	232.86	17.508	741.17	583.53	-179.46	637.78	927.44	237.77	524.43	290.71	15.28	384.75	63.768	101.2	885.4	23.269	-162.57	598.03	355.23	17.704	614.76	465.92	-28.16	593.74	1083.8	236.31	717.34	673.71	-200.65	555.01	1084.4	159.12	353.52	151.73	-6.7782	643.78	494	98.174	265.44	173.38	8.4838	799.86	309.53	-160.78	499.8	1029.3	-84.894	745.49	521.59	-172.5	492.93	1030.1	-16.219	646.54	540.68	101.38	775.1	694.16	-160.69	513.71	1215.5	-52.5	694.16	1017.1	-196.94	705.76	32.941	-93.995	628.46	1596.3	7.6633	571.63	1364.3	93.251	667.08	982.34	111.55	805.78	1633.2	-97.752	805.64	1633	-22.71	702.08	1417.1	92.191	921.2	36.476	-86.116	328.57	171.82	70.001	767.99	59.63	-144.13	667.82	1241.4	184.4	736.93	844.88	180.23	807.51	401.86	-88.85	738.34	498.4	-44.637	692.88	761.74	-217.68	802.59	216.35	-90.293	804.22	309	-88.578	644.55	634.36	117.55
854	4.27	962.38	59.635	-103.89	554.87	794.9	-328.11	598.53	1471.4	-66.133	713.13	643.5	74.723	694.21	1399.9	-231.3	633.22	1600.3	-129.76	566.67	1075.9	-326.47	635.22	1200	-296.37	418.36	36.977	29.816	545.7	937.49	-332.31	740.65	799.02	228.92	465.3	37.15	65.575	619.12	759.46	-313.74	527.04	300.52	91.137	790.57	72.844	-62.525	464.5	235.3	17.809	743.78	583.36	-180.12	641.25	927.88	236.87	532.68	292.57	15.566	390.93	66.719	101.22	885.48	23.313	-162.56	606.91	356.54	17.925	624.76	466.72	-28.177	597.5	1084.3	235.42	720.63	673.73	-201.26	558.85	1085.1	158.22	360.54	154.97	-6.5182	652.99	494.72	98.49	272.64	177.6	8.8738	801.69	309.3	-160.89	504.39	1029.7	-85.648	748.32	521.6	-172.85	497.5	1030.4	-17.023	655.34	541.34	101.59	778.83	693.71	-161.69	518.19	1216	-53.328	698.66	1017.8	-197.73	705.74	32.922	-93.993	632.87	1596.9	7.1008	575.76	1364.8	92.455	673.08	983.42	110.33	810.28	1633.7	-98.193	810.09	1633.5	-23.158	706.24	1417.6	91.626	921.27	36.352	-86.037	335.85	175.37	70.369	768.07	59.625	-144.05	671.76	1241.9	183.71	740.42	845.2	179.49	809.8	401.6	-89.028	740.99	498.52	-45.146	696.88	761.94	-218.35	803.67	216.13	-90.283	805.92	308.77	-88.662	652.46	634.96	117.5
855	4.275	962.72	59.168	-103.77	562.87	794.94	-328.85	602.85	1472	-66.809	720.92	644.73	74.77	698.87	1400.6	-231.83	637.66	1601	-130.29	572.99	1076	-327.39	640.93	1200.4	-297.04	424.11	39.058	29.72	552.84	937.46	-333.19	743.96	799.29	228.11	471.07	39.495	65.32	627.28	759.92	-314.3	535.43	302.45	91.325	790.59	72.817	-62.392	472.38	237.64	18.062	746.31	583.18	-180.77	644.7	928.29	235.97	541	294.42	15.804	397.57	69.615	101.3	885.56	23.357	-162.55	615.79	357.9	18.089	634.59	467.69	-28.189	601.23	1084.8	234.55	723.82	673.73	-201.86	562.65	1085.7	157.34	367.81	158	-6.2988	662.05	495.54	98.772	280.04	181.39	9.2356	803.44	309.06	-161.03	508.96	1030.2	-86.393	751.09	521.61	-173.21	502.06	1030.7	-17.814	664.01	542.09	101.78	782.46	693.24	-162.69	522.64	1216.5	-54.134	703.14	1018.5	-198.51	705.72	32.899	-93.987	637.23	1597.6	6.5611	579.84	1365.3	91.663	679.04	984.41	109.22	814.72	1634.3	-98.596	814.5	1634	-23.571	710.36	1418.2	91.101	921.33	36.254	-85.953	343.36	178.66	70.709	768.14	59.618	-143.98	675.65	1242.4	183.06	743.9	845.52	178.76	812.04	401.33	-89.246	743.54	498.59	-45.668	700.79	762.11	-219.01	804.72	215.92	-90.301	807.58	308.54	-88.774	660.25	635.62	117.45
